<svg 
 xmlns="http://www.w3.org/2000/svg"
 xmlns:xlink="http://www.w3.org/1999/xlink"
 width="47px" height="16px">
<path fill-rule="evenodd"  fill="rgb(175, 175, 175)"
 d="M46.454,15.363 C46.304,15.582 46.102,15.742 45.849,15.844 C45.703,15.906 45.534,15.937 45.342,15.937 C44.973,15.937 44.654,15.812 44.385,15.562 L39.303,10.592 L34.220,15.562 C33.944,15.820 33.624,15.949 33.263,15.949 C33.087,15.949 32.918,15.914 32.756,15.844 C32.503,15.742 32.301,15.582 32.151,15.363 C32.002,15.144 31.927,14.902 31.927,14.636 L31.927,1.300 C31.927,1.034 32.002,0.792 32.151,0.573 C32.301,0.355 32.503,0.195 32.756,0.093 C32.918,0.022 33.087,-0.013 33.263,-0.013 L45.342,-0.013 C45.518,-0.013 45.688,0.022 45.849,0.093 C46.102,0.195 46.304,0.355 46.454,0.574 C46.604,0.792 46.679,1.034 46.679,1.300 L46.679,14.636 C46.679,14.902 46.604,15.144 46.454,15.363 ZM12.044,10.467 C13.458,10.467 14.604,11.703 14.604,13.229 C14.604,14.755 13.458,15.991 12.044,15.991 C10.633,15.991 9.484,14.755 9.484,13.229 C9.484,12.957 9.534,12.700 9.603,12.451 L5.276,10.062 C4.808,10.733 4.075,11.174 3.238,11.174 C1.824,11.174 0.678,9.938 0.678,8.412 C0.678,6.886 1.824,5.649 3.238,5.649 C4.053,5.649 4.771,6.068 5.239,6.708 L9.585,4.308 C9.528,4.080 9.487,3.844 9.487,3.594 C9.487,2.069 10.633,0.832 12.044,0.832 C13.461,0.832 14.604,2.069 14.604,3.594 C14.604,5.121 13.461,6.354 12.044,6.354 C11.207,6.354 10.474,5.919 10.005,5.248 L5.679,7.637 C5.748,7.883 5.794,8.139 5.794,8.412 C5.794,8.661 5.754,8.897 5.697,9.125 L10.046,11.525 C10.515,10.884 11.229,10.467 12.044,10.467 Z"/>
</svg>