<svg 
 xmlns="http://www.w3.org/2000/svg"
 xmlns:xlink="http://www.w3.org/1999/xlink"
 width="35px" height="27px">
<path fill-rule="evenodd"  fill="rgb(148, 148, 148)"
 d="M31.144,16.671 L17.495,26.995 L3.836,16.663 C1.399,14.894 -0.005,12.191 -0.005,9.257 C-0.005,4.152 4.250,-0.001 9.482,-0.001 C12.765,-0.001 15.775,1.655 17.495,4.315 C19.215,1.655 22.227,-0.001 25.513,-0.001 C30.743,-0.001 34.997,4.152 34.997,9.257 C34.997,12.193 33.593,14.896 31.144,16.671 ZM25.513,1.447 C22.328,1.447 19.448,3.292 18.175,6.147 L17.495,7.673 L16.814,6.147 C15.542,3.292 12.664,1.447 9.482,1.447 C5.068,1.447 1.478,4.950 1.478,9.256 C1.478,11.728 2.665,14.007 4.733,15.509 L17.494,25.163 L30.247,15.517 C32.327,14.009 33.513,11.730 33.513,9.256 C33.513,4.950 29.924,1.447 25.513,1.447 ZM19.880,11.137 L17.066,19.592 L14.238,13.411 L13.955,14.198 L9.213,14.198 L9.213,12.910 L13.019,12.910 L14.089,9.926 L16.871,16.007 L19.799,7.211 L22.081,13.231 L25.779,13.231 L25.779,14.520 L21.162,14.520 L19.880,11.137 Z"/>
</svg>