<svg 
 xmlns="http://www.w3.org/2000/svg"
 xmlns:xlink="http://www.w3.org/1999/xlink"
 width="31px" height="29px">
<path fill-rule="evenodd"  fill="rgb(148, 148, 148)"
 d="M20.405,25.554 C21.002,26.231 21.456,27.200 21.677,28.365 L21.796,28.993 L9.204,28.993 L9.322,28.365 C9.543,27.201 9.997,26.231 10.593,25.554 L-0.007,25.554 L-0.007,0.009 L31.006,0.009 L31.006,25.554 L20.405,25.554 ZM10.510,27.711 L10.429,27.945 L20.570,27.945 L20.489,27.711 C20.032,26.380 19.200,25.554 18.317,25.554 L12.682,25.554 C11.799,25.554 10.967,26.381 10.510,27.711 ZM30.027,1.056 L0.972,1.056 L0.972,20.312 L30.027,20.312 L30.027,1.056 ZM30.027,21.359 L0.972,21.359 L0.972,24.506 L12.682,24.506 L18.317,24.506 L30.027,24.506 L30.027,21.359 ZM14.687,22.358 L16.317,22.358 L16.317,23.406 L14.687,23.406 L14.687,22.358 ZM11.415,15.536 L17.552,4.376 L21.415,14.916 L25.214,6.033 L22.300,6.732 L22.086,5.710 L26.707,4.601 L27.702,9.721 L26.744,9.934 L26.081,6.526 L21.345,17.597 L17.374,6.763 L11.758,16.977 L7.741,14.403 L4.210,18.087 L3.526,17.337 L7.597,13.089 L11.415,15.536 Z"/>
</svg>