<svg 
 xmlns="http://www.w3.org/2000/svg"
 xmlns:xlink="http://www.w3.org/1999/xlink"
 width="20px" height="34px">
<path fill-rule="evenodd"  fill="rgb(148, 148, 148)"
 d="M19.363,28.908 C19.713,28.908 19.997,29.181 19.997,29.517 L19.997,33.390 C19.997,33.727 19.713,34.000 19.363,34.000 L0.641,34.000 C0.290,34.000 0.006,33.727 0.006,33.390 L0.006,29.517 C0.006,29.181 0.290,28.908 0.641,28.908 L2.333,28.908 L2.333,11.484 L0.526,11.164 C0.225,11.111 0.006,10.859 0.006,10.565 L0.006,6.691 C0.006,6.511 0.090,6.339 0.235,6.224 C0.380,6.108 0.571,6.060 0.756,6.093 L5.439,6.921 L7.382,2.333 L5.410,2.912 C5.348,2.930 5.286,2.939 5.224,2.939 C4.952,2.939 4.701,2.770 4.617,2.508 C4.515,2.186 4.703,1.845 5.038,1.747 L10.910,0.022 C11.245,-0.076 11.600,0.105 11.703,0.426 C11.805,0.748 11.617,1.088 11.282,1.187 L8.946,1.873 L6.713,7.146 L19.477,9.403 C19.778,9.456 19.997,9.708 19.997,10.002 L19.997,13.876 C19.997,14.056 19.913,14.228 19.769,14.344 C19.654,14.435 19.510,14.485 19.363,14.485 C19.324,14.485 19.286,14.481 19.248,14.474 L17.670,14.196 L17.670,28.908 L19.363,28.908 ZM18.728,13.144 L18.728,10.509 L5.713,8.208 C5.712,8.207 5.712,8.207 5.711,8.207 L1.275,7.423 L1.275,10.059 L18.728,13.144 ZM5.842,14.226 C5.988,14.110 6.179,14.063 6.366,14.097 L14.193,15.533 C14.492,15.588 14.709,15.839 14.709,16.132 L14.709,28.909 L16.401,28.909 L16.401,13.972 L3.602,11.709 L3.602,28.908 L5.612,28.908 L5.612,14.695 C5.612,14.513 5.696,14.342 5.842,14.226 ZM6.881,15.432 L6.881,28.909 L13.439,28.909 L13.439,16.635 L6.881,15.432 ZM1.275,30.126 L1.275,32.782 L18.728,32.782 L18.728,30.126 L1.275,30.126 ZM8.368,27.498 C8.017,27.498 7.734,27.225 7.734,26.889 L7.734,18.161 C7.734,17.825 8.017,17.552 8.368,17.552 C8.719,17.552 9.003,17.825 9.003,18.161 L9.003,26.889 C9.003,27.225 8.719,27.498 8.368,27.498 Z"/>
</svg>