<svg 
 xmlns="http://www.w3.org/2000/svg"
 xmlns:xlink="http://www.w3.org/1999/xlink"
 width="33px" height="35px">
<path fill-rule="evenodd"  fill="rgb(148, 148, 148)"
 d="M31.966,10.858 L26.698,15.138 L26.697,15.139 C26.295,15.465 25.778,15.600 25.328,15.577 C24.887,15.554 24.500,15.420 24.131,15.264 L20.080,13.765 L12.465,33.213 L12.465,33.213 C11.921,34.680 10.452,35.290 9.317,34.873 C8.177,34.455 7.436,33.065 7.929,31.572 L7.929,31.572 L10.401,24.089 L9.885,24.865 C9.008,26.183 7.521,26.551 6.484,25.985 C5.447,25.419 4.962,24.011 5.582,22.703 L5.582,22.703 L11.540,10.139 L2.741,11.171 C2.740,11.171 2.740,11.171 2.740,11.171 C1.290,11.342 0.155,10.297 0.010,9.128 C-0.063,8.543 0.090,7.909 0.505,7.406 C0.917,6.905 1.570,6.563 2.366,6.459 L2.366,6.459 L14.512,4.710 C14.681,4.686 14.853,4.715 15.003,4.794 L15.052,4.820 C15.006,4.575 14.981,4.324 14.981,4.067 C14.981,1.835 16.805,-0.005 19.049,-0.005 L19.050,-0.005 C21.291,-0.005 23.117,1.833 23.117,4.067 C23.117,5.716 22.126,7.147 20.707,7.787 L25.073,10.078 L29.056,7.233 C29.056,7.233 29.056,7.233 29.056,7.233 C30.294,6.348 31.800,6.569 32.538,7.476 C33.276,8.384 33.141,9.903 31.966,10.858 ZM21.512,4.067 C21.512,2.686 20.411,1.587 19.049,1.587 C17.682,1.587 16.586,2.685 16.586,4.067 C16.586,5.455 17.682,6.551 19.049,6.551 C20.411,6.551 21.512,5.454 21.512,4.067 ZM31.289,8.476 C31.087,8.228 30.705,8.016 29.994,8.524 C29.994,8.524 29.994,8.524 29.994,8.524 L25.711,11.584 C25.573,11.718 25.392,11.798 25.200,11.811 C25.003,11.829 24.805,11.773 24.647,11.655 L14.484,6.322 L14.484,6.322 L2.596,8.034 C2.592,8.035 2.588,8.035 2.583,8.036 C2.103,8.097 1.874,8.259 1.748,8.412 C1.621,8.566 1.578,8.743 1.602,8.932 C1.649,9.311 1.879,9.669 2.551,9.590 C2.551,9.590 2.551,9.590 2.551,9.590 L12.787,8.389 C12.936,8.372 13.087,8.396 13.222,8.459 C13.623,8.646 13.796,9.121 13.607,9.518 L7.034,23.381 L7.034,23.381 C6.705,24.073 6.960,24.428 7.257,24.591 C7.555,24.753 7.996,24.813 8.545,23.988 L12.355,18.264 C12.554,17.966 12.930,17.836 13.273,17.947 C13.695,18.083 13.925,18.533 13.787,18.951 L9.454,32.068 C9.454,32.068 9.454,32.068 9.454,32.068 C9.171,32.923 9.519,33.250 9.873,33.380 C10.228,33.510 10.652,33.505 10.962,32.655 C10.964,32.649 10.966,32.643 10.969,32.637 L18.871,12.456 C19.030,12.050 19.488,11.846 19.899,11.999 L24.705,13.777 C24.717,13.782 24.729,13.787 24.741,13.792 C25.033,13.916 25.270,13.980 25.411,13.987 C25.551,13.994 25.582,13.987 25.678,13.908 C25.679,13.908 25.679,13.907 25.679,13.907 L30.949,9.627 C31.617,9.084 31.491,8.724 31.289,8.476 ZM20.965,26.832 C23.209,26.832 25.033,28.672 25.033,30.904 C25.033,33.140 23.209,34.980 20.965,34.980 C18.723,34.980 16.897,33.141 16.897,30.904 C16.897,28.670 18.723,26.832 20.965,26.832 ZM20.965,33.389 C22.332,33.389 23.428,32.292 23.428,30.904 C23.428,29.522 22.332,28.424 20.965,28.424 C19.603,28.424 18.501,29.523 18.501,30.904 C18.501,32.291 19.603,33.389 20.965,33.389 Z"/>
</svg>