<svg 
 xmlns="http://www.w3.org/2000/svg"
 xmlns:xlink="http://www.w3.org/1999/xlink"
 width="34px" height="26px">
<path fill-rule="evenodd"  fill="rgb(148, 148, 148)"
 d="M33.299,22.447 L0.701,22.447 C0.314,22.447 0.000,22.135 0.000,21.749 L0.000,0.702 C0.000,0.316 0.314,0.004 0.701,0.004 L33.299,0.004 C33.686,0.004 34.000,0.316 34.000,0.702 L34.000,21.749 C34.000,22.135 33.686,22.447 33.299,22.447 ZM32.598,1.400 L1.402,1.400 L1.402,21.051 L32.598,21.051 L32.598,1.400 ZM12.969,5.581 L21.732,10.621 C21.949,10.746 22.083,10.976 22.083,11.225 C22.083,11.475 21.949,11.705 21.732,11.830 L12.969,16.867 C12.860,16.929 12.740,16.960 12.619,16.960 C12.498,16.960 12.376,16.929 12.268,16.867 C12.051,16.742 11.918,16.511 11.918,16.262 L11.918,6.185 C11.918,5.936 12.051,5.705 12.268,5.581 C12.485,5.456 12.752,5.456 12.969,5.581 ZM13.320,15.054 L19.980,11.225 L13.320,7.395 L13.320,15.054 ZM7.329,24.601 L26.671,24.601 C27.058,24.601 27.372,24.913 27.372,25.299 C27.372,25.684 27.058,25.997 26.671,25.997 L7.329,25.997 C6.942,25.997 6.628,25.684 6.628,25.299 C6.628,24.913 6.942,24.601 7.329,24.601 Z"/>
</svg>